<?xml version="1.0" standalone="no"?>
<!DOCTYPE svg PUBLIC "-//W3C//DTD SVG 20010904//EN"
 "http://www.w3.org/TR/2001/REC-SVG-20010904/DTD/svg10.dtd">
<svg version="1.0" xmlns="http://www.w3.org/2000/svg"
 width="512.000000pt" height="512.000000pt" viewBox="0 0 512.000000 512.000000"
 preserveAspectRatio="xMidYMid meet">

<g transform="translate(0.000000,512.000000) scale(0.100000,-0.100000)"
fill="#000000" stroke="none">
<path d="M1383 5038 c-11 -13 -26 -45 -32 -73 -30 -122 -124 -241 -247 -311
-113 -65 -113 -115 1 -179 120 -67 216 -188 246 -310 14 -60 43 -95 79 -95 44
0 67 25 89 98 11 38 33 91 48 118 37 67 126 152 203 194 106 58 105 115 -2
172 -120 63 -232 206 -254 322 -14 77 -87 112 -131 64z m174 -418 l59 -55 -63
-58 c-34 -32 -74 -78 -89 -101 l-27 -43 -43 57 c-23 31 -64 76 -92 100 l-50
43 58 53 c31 30 72 76 91 103 l34 49 31 -47 c18 -26 58 -71 91 -101z"/>
<path d="M2837 4849 c-111 -12 -217 -43 -332 -98 -638 -305 -791 -1141 -301
-1649 203 -210 463 -322 751 -322 548 0 1002 432 1032 982 6 104 6 106 -20
132 -34 34 -79 35 -105 2 -15 -19 -20 -48 -25 -123 -23 -385 -270 -696 -644
-810 -78 -23 -105 -26 -238 -27 -127 -1 -162 3 -228 22 -503 145 -777 651
-616 1138 102 305 367 537 679 594 178 32 398 2 556 -78 182 -91 340 -254 413
-425 30 -70 81 -95 128 -62 39 27 38 65 -3 147 -58 115 -98 172 -185 262 -178
186 -397 291 -657 316 -59 5 -111 9 -117 9 -5 -1 -45 -5 -88 -10z"/>
<path d="M2662 4330 c-22 -20 -22 -26 -22 -276 0 -261 -4 -294 -38 -294 -27 0
-42 20 -42 55 0 66 -85 100 -130 53 -31 -32 -24 -121 12 -176 58 -86 187 -108
266 -45 77 62 77 63 77 381 l0 284 -24 19 c-30 25 -72 24 -99 -1z"/>
<path d="M2902 4327 c-21 -22 -22 -32 -22 -201 0 -203 9 -235 80 -282 130 -86
290 2 290 159 0 63 -22 90 -72 90 -38 0 -78 -41 -78 -82 0 -36 -25 -59 -48
-44 -14 9 -18 36 -22 177 -5 161 -6 169 -29 187 -32 26 -73 24 -99 -4z"/>
<path d="M3352 3727 c-20 -21 -21 -30 -16 -102 5 -67 2 -86 -14 -115 -40 -73
-126 -94 -196 -46 -47 31 -65 32 -100 5 -64 -50 -11 -143 101 -175 181 -53
365 95 365 294 0 105 -30 162 -87 162 -20 0 -39 -8 -53 -23z"/>
<path d="M2903 3700 c-26 -11 -43 -40 -43 -74 0 -63 89 -90 129 -40 34 43 24
86 -26 112 -25 14 -30 14 -60 2z"/>
<path d="M3165 3698 c-48 -28 -57 -70 -24 -112 41 -52 129 -23 129 43 0 55
-61 95 -105 69z"/>
<path d="M4467 3532 c-9 -9 -21 -40 -27 -67 -6 -28 -28 -84 -48 -125 -46 -94
-158 -210 -252 -260 -112 -61 -120 -118 -22 -170 166 -88 283 -233 322 -398
13 -54 46 -92 81 -92 34 0 66 44 92 127 28 86 56 139 115 212 39 48 138 125
188 146 40 17 74 53 74 80 0 34 -27 62 -93 97 -82 43 -203 165 -245 244 -17
34 -39 90 -48 125 -9 35 -23 72 -32 82 -20 23 -84 23 -105 -1z m94 -344 c35
-55 112 -138 164 -177 29 -22 29 -23 10 -37 -48 -34 -153 -147 -180 -193 -17
-28 -32 -51 -35 -51 -3 0 -18 23 -35 51 -16 28 -68 87 -114 131 l-84 80 34 26
c51 38 125 118 161 173 17 27 34 49 38 49 4 0 22 -24 41 -52z"/>
<path d="M3620 2185 c-267 -102 -491 -183 -497 -180 -7 2 -13 12 -13 21 0 31
-64 136 -103 169 -70 60 -121 79 -219 79 l-87 1 -423 -211 -424 -212 -149 36
c-246 57 -386 47 -570 -42 -50 -24 -118 -65 -153 -90 -34 -25 -64 -46 -67 -46
-3 0 -5 52 -5 115 0 127 -10 164 -55 205 l-27 25 -365 3 c-353 3 -366 2 -398
-18 -68 -42 -65 9 -65 -982 0 -873 1 -894 20 -926 11 -18 34 -41 52 -52 31
-19 51 -20 384 -20 348 0 351 0 385 23 49 32 69 79 69 160 l0 67 193 0 c229 0
324 -12 637 -79 301 -64 386 -75 540 -68 259 10 351 52 1325 605 513 292 1013
571 1190 666 207 111 252 146 294 236 22 46 26 68 25 140 -1 103 -22 157 -89
229 -66 70 -148 105 -245 105 -66 -1 -89 -7 -188 -47 -62 -26 -115 -47 -117
-47 -3 0 -5 15 -5 33 0 104 -65 208 -161 256 -53 26 -73 31 -133 30 -67 0 -98
-10 -556 -184z m627 15 c44 -27 65 -62 65 -112 1 -50 -21 -99 -54 -120 -13 -8
-273 -118 -578 -244 l-555 -229 -220 -3 -220 -3 150 92 c163 99 212 139 246
203 l22 42 521 196 c303 115 536 197 556 198 19 0 49 -9 67 -20z m-1399 -84
c68 -24 122 -104 122 -177 -1 -33 -33 -100 -61 -126 -13 -12 -231 -144 -484
-293 -253 -150 -468 -281 -477 -292 -25 -28 -22 -62 5 -94 38 -44 65 -36 262
83 l180 108 370 6 c326 5 376 7 420 24 28 10 387 157 800 327 805 332 800 330
880 293 74 -36 118 -132 96 -212 -17 -61 -54 -99 -135 -140 -100 -50 -409
-221 -851 -471 -595 -336 -904 -510 -1108 -621 -353 -193 -420 -215 -632 -215
-154 0 -196 6 -493 70 -289 64 -374 74 -619 74 l-213 0 0 160 c0 157 -1 161
-25 185 -13 14 -31 25 -40 25 -12 0 -15 16 -15 100 0 84 3 100 15 100 9 0 27
11 40 25 25 24 25 24 25 234 l0 209 58 52 c158 142 328 221 482 222 52 0 123
-10 232 -36 87 -20 169 -36 183 -36 13 0 218 97 455 215 447 223 457 227 528
201z m-2208 -1056 l0 -850 -245 0 -245 0 0 850 0 850 245 0 245 0 0 -850z"/>
</g>
</svg>
